<svg width="20" height="20" viewBox="0 0 20 20" fill="none" xmlns="http://www.w3.org/2000/svg">
<g id="Icon">
<path id="Icon_2" fill-rule="evenodd" clip-rule="evenodd" d="M4.35662 4.35662C4.712 4.00124 5.28818 4.00124 5.64356 4.35662L10.0001 8.71315L14.3566 4.35662C14.712 4.00124 15.2882 4.00124 15.6436 4.35662C15.9989 4.712 15.9989 5.28818 15.6436 5.64356L11.287 10.0001L15.6436 14.3566C15.9989 14.712 15.9989 15.2882 15.6436 15.6436C15.2882 15.9989 14.712 15.9989 14.3566 15.6436L10.0001 11.287L5.64356 15.6436C5.28818 15.9989 4.712 15.9989 4.35662 15.6436C4.00124 15.2882 4.00124 14.712 4.35662 14.3566L8.71315 10.0001L4.35662 5.64356C4.00124 5.28818 4.00124 4.712 4.35662 4.35662Z" fill="black"/>
</g>
</svg>
